<svg id="visual" viewBox="0 0 900 600" width="900" height="600" xmlns="http://www.w3.org/2000/svg" xmlns:xlink="http://www.w3.org/1999/xlink" version="1.1"><rect x="0" y="0" width="900" height="600" fill="#001220"></rect><path d="M0 370L21.5 383.2C43 396.3 86 422.7 128.8 418.8C171.7 415 214.3 381 257.2 382.5C300 384 343 421 385.8 432C428.7 443 471.3 428 514.2 428.8C557 429.7 600 446.3 642.8 452.2C685.7 458 728.3 453 771.2 443.2C814 433.3 857 418.7 878.5 411.3L900 404L900 601L878.5 601C857 601 814 601 771.2 601C728.3 601 685.7 601 642.8 601C600 601 557 601 514.2 601C471.3 601 428.7 601 385.8 601C343 601 300 601 257.2 601C214.3 601 171.7 601 128.8 601C86 601 43 601 21.5 601L0 601Z" fill="#fa7268"></path><path d="M0 377L21.5 377.2C43 377.3 86 377.7 128.8 395.3C171.7 413 214.3 448 257.2 448.8C300 449.7 343 416.3 385.8 408.5C428.7 400.7 471.3 418.3 514.2 429.5C557 440.7 600 445.3 642.8 452.3C685.7 459.3 728.3 468.7 771.2 468C814 467.3 857 456.7 878.5 451.3L900 446L900 601L878.5 601C857 601 814 601 771.2 601C728.3 601 685.7 601 642.8 601C600 601 557 601 514.2 601C471.3 601 428.7 601 385.8 601C343 601 300 601 257.2 601C214.3 601 171.7 601 128.8 601C86 601 43 601 21.5 601L0 601Z" fill="#f56a67"></path><path d="M0 456L21.5 458.2C43 460.3 86 464.7 128.8 455C171.7 445.3 214.3 421.7 257.2 423.5C300 425.3 343 452.7 385.8 452.5C428.7 452.3 471.3 424.7 514.2 428.7C557 432.7 600 468.3 642.8 482C685.7 495.7 728.3 487.3 771.2 482C814 476.7 857 474.3 878.5 473.2L900 472L900 601L878.5 601C857 601 814 601 771.2 601C728.3 601 685.7 601 642.8 601C600 601 557 601 514.2 601C471.3 601 428.7 601 385.8 601C343 601 300 601 257.2 601C214.3 601 171.7 601 128.8 601C86 601 43 601 21.5 601L0 601Z" fill="#f06167"></path><path d="M0 442L21.5 446.8C43 451.7 86 461.3 128.8 467.3C171.7 473.3 214.3 475.7 257.2 479.8C300 484 343 490 385.8 481.7C428.7 473.3 471.3 450.7 514.2 446.7C557 442.7 600 457.3 642.8 467.7C685.7 478 728.3 484 771.2 485C814 486 857 482 878.5 480L900 478L900 601L878.5 601C857 601 814 601 771.2 601C728.3 601 685.7 601 642.8 601C600 601 557 601 514.2 601C471.3 601 428.7 601 385.8 601C343 601 300 601 257.2 601C214.3 601 171.7 601 128.8 601C86 601 43 601 21.5 601L0 601Z" fill="#eb5967"></path><path d="M0 521L21.5 508.3C43 495.7 86 470.3 128.8 466.5C171.7 462.7 214.3 480.3 257.2 486.8C300 493.3 343 488.7 385.8 490.3C428.7 492 471.3 500 514.2 498.2C557 496.3 600 484.7 642.8 475.5C685.7 466.3 728.3 459.7 771.2 457.5C814 455.3 857 457.7 878.5 458.8L900 460L900 601L878.5 601C857 601 814 601 771.2 601C728.3 601 685.7 601 642.8 601C600 601 557 601 514.2 601C471.3 601 428.7 601 385.8 601C343 601 300 601 257.2 601C214.3 601 171.7 601 128.8 601C86 601 43 601 21.5 601L0 601Z" fill="#e65067"></path><path d="M0 475L21.5 479.8C43 484.7 86 494.3 128.8 501.7C171.7 509 214.3 514 257.2 511.5C300 509 343 499 385.8 497.5C428.7 496 471.3 503 514.2 503.2C557 503.3 600 496.7 642.8 493C685.7 489.3 728.3 488.7 771.2 485C814 481.3 857 474.7 878.5 471.3L900 468L900 601L878.5 601C857 601 814 601 771.2 601C728.3 601 685.7 601 642.8 601C600 601 557 601 514.2 601C471.3 601 428.7 601 385.8 601C343 601 300 601 257.2 601C214.3 601 171.7 601 128.8 601C86 601 43 601 21.5 601L0 601Z" fill="#e04867"></path><path d="M0 530L21.5 526.3C43 522.7 86 515.3 128.8 518.7C171.7 522 214.3 536 257.2 534.5C300 533 343 516 385.8 505.8C428.7 495.7 471.3 492.3 514.2 500.8C557 509.3 600 529.7 642.8 535.5C685.7 541.3 728.3 532.7 771.2 531.5C814 530.3 857 536.7 878.5 539.8L900 543L900 601L878.5 601C857 601 814 601 771.2 601C728.3 601 685.7 601 642.8 601C600 601 557 601 514.2 601C471.3 601 428.7 601 385.8 601C343 601 300 601 257.2 601C214.3 601 171.7 601 128.8 601C86 601 43 601 21.5 601L0 601Z" fill="#da3f67"></path><path d="M0 556L21.5 556.5C43 557 86 558 128.8 558.2C171.7 558.3 214.3 557.7 257.2 554.3C300 551 343 545 385.8 543C428.7 541 471.3 543 514.2 545.5C557 548 600 551 642.8 545.7C685.7 540.3 728.3 526.7 771.2 527.2C814 527.7 857 542.3 878.5 549.7L900 557L900 601L878.5 601C857 601 814 601 771.2 601C728.3 601 685.7 601 642.8 601C600 601 557 601 514.2 601C471.3 601 428.7 601 385.8 601C343 601 300 601 257.2 601C214.3 601 171.7 601 128.8 601C86 601 43 601 21.5 601L0 601Z" fill="#d43667"></path><path d="M0 538L21.5 539.5C43 541 86 544 128.8 547C171.7 550 214.3 553 257.2 557.7C300 562.3 343 568.7 385.8 571.8C428.7 575 471.3 575 514.2 571.7C557 568.3 600 561.7 642.8 555.7C685.7 549.7 728.3 544.3 771.2 540.7C814 537 857 535 878.5 534L900 533L900 601L878.5 601C857 601 814 601 771.2 601C728.3 601 685.7 601 642.8 601C600 601 557 601 514.2 601C471.3 601 428.7 601 385.8 601C343 601 300 601 257.2 601C214.3 601 171.7 601 128.8 601C86 601 43 601 21.5 601L0 601Z" fill="#cd2d68"></path><path d="M0 557L21.5 558.2C43 559.3 86 561.7 128.8 566.8C171.7 572 214.3 580 257.2 583.3C300 586.7 343 585.3 385.8 581.5C428.7 577.7 471.3 571.3 514.2 570.8C557 570.3 600 575.7 642.8 578.5C685.7 581.3 728.3 581.7 771.2 578.7C814 575.7 857 569.3 878.5 566.2L900 563L900 601L878.5 601C857 601 814 601 771.2 601C728.3 601 685.7 601 642.8 601C600 601 557 601 514.2 601C471.3 601 428.7 601 385.8 601C343 601 300 601 257.2 601C214.3 601 171.7 601 128.8 601C86 601 43 601 21.5 601L0 601Z" fill="#c62368"></path></svg>